<?xml version="1.0" encoding="UTF-8" standalone="no" ?>
<!DOCTYPE svg PUBLIC "-//W3C//DTD SVG 1.1//EN" "http://www.w3.org/Graphics/SVG/1.1/DTD/svg11.dtd">
<svg xmlns="http://www.w3.org/2000/svg" xmlns:xlink="http://www.w3.org/1999/xlink" version="1.1" width="1080" height="1080" viewBox="0 0 1080 1080" xml:space="preserve">
<desc>Created with Fabric.js 5.2.4</desc>
<defs>
</defs>
<g transform="matrix(1 0 0 1 540 540)" id="86eedd82-bdd1-4272-a8c9-ef05aea94347"  >
<rect style="stroke: none; stroke-width: 1; stroke-dasharray: none; stroke-linecap: butt; stroke-dashoffset: 0; stroke-linejoin: miter; stroke-miterlimit: 4; fill: rgb(255,255,255); fill-rule: nonzero; opacity: 1; visibility: hidden;" vector-effect="non-scaling-stroke"  x="-540" y="-540" rx="0" ry="0" width="1080" height="1080" />
</g>
<g transform="matrix(1 0 0 1 540 540)" id="0424d050-b42e-4974-8a40-b9aa63d3feb4"  >
</g>
<g transform="matrix(1 0 0 1 540 540)" id="cdd83e2e-d3a2-48ce-80b4-8ebbad5b0f59"  >
<path style="stroke: rgb(0,0,0); stroke-width: 0; stroke-dasharray: none; stroke-linecap: butt; stroke-dashoffset: 0; stroke-linejoin: miter; stroke-miterlimit: 4; fill: rgb(222,222,222); fill-rule: nonzero; opacity: 1;" vector-effect="non-scaling-stroke"  transform=" translate(-500.08, -499.96)" d="M 670.4 460 C 665.2 458.5 659.9 457.2 654.7 456 C 609.9 484.1 556.9 500.4 500.1 500.4 C 442.6 500.4 389 483.7 343.8 454.9 C 225.6 481 135.8 590.1 133 707.5 C 131.5 769.4 130.2 831.3 130.2 893.2 C 130.1 950.9 125.9 952.5 155.5 960.4 C 155.6 960.4 534.5 1048.8 844.9 961.2 C 861.3 954.5 870.6 946.2 870.2 926 C 868.8 854.6 871.5 783.2 868.7 711.9 C 864.2 592.7 785.7 492.2 670.4 460 z M 501.8 433.2 C 620.3 431.5 716.2 334.6 716.3 216.4 C 716.4 96.5 621.8 0.6999999999999886 502.8 0 C 381.9 -0.7 283.5 95.7 282.9 215.4 C 282.3 333.7 384 434.9 501.8 433.2 z" stroke-linecap="round" />
</g>
</svg>